<?xml version="1.0" standalone="no"?>
<!DOCTYPE svg PUBLIC "-//W3C//DTD SVG 20010904//EN"
 "http://www.w3.org/TR/2001/REC-SVG-20010904/DTD/svg10.dtd">
<svg version="1.0" xmlns="http://www.w3.org/2000/svg"
 width="90.000000pt" height="95.000000pt" viewBox="0 0 308.000000 319.000000"
 preserveAspectRatio="xMidYMid meet">

<g transform="translate(0.000000,319.000000) scale(0.100000,-0.100000)"
fill="#591814" stroke="none">
<path d="M1602 3134 c-6 -16 -21 -65 -33 -109 -12 -44 -26 -83 -33 -87 -6 -4
-39 -8 -73 -8 -34 0 -97 -7 -140 -15 -127 -24 -121 -27 -177 75 -27 49 -57 92
-67 95 -20 7 -145 -45 -249 -102 -94 -53 -197 -123 -258 -178 -61 -55 -61 -52
4 -169 25 -44 43 -85 42 -91 -2 -6 -46 -70 -98 -143 -66 -91 -101 -131 -115
-131 -11 -1 -52 8 -90 19 -93 27 -121 26 -140 -4 -48 -73 -125 -333 -146 -491
-17 -132 -15 -135 110 -170 l100 -28 5 -56 c3 -31 13 -112 22 -180 13 -103 14
-125 2 -132 -7 -5 -41 -25 -75 -44 -83 -47 -105 -76 -91 -118 23 -72 139 -298
196 -382 75 -111 106 -145 135 -145 12 0 51 19 87 43 36 24 73 46 82 50 11 4
39 -12 85 -51 37 -31 98 -79 136 -105 38 -27 67 -55 67 -65 0 -9 -11 -57 -24
-107 -15 -56 -21 -96 -15 -106 10 -20 118 -72 218 -106 99 -33 234 -62 326
-70 l75 -6 14 35 c8 19 23 66 32 104 9 38 21 75 27 82 5 6 28 12 51 12 36 1
169 19 263 36 30 6 32 4 71 -67 55 -101 69 -119 95 -119 31 0 201 79 299 139
46 27 118 78 161 112 95 76 98 91 32 193 -25 38 -45 78 -45 89 0 10 20 42 45
69 25 28 71 88 101 134 31 46 58 84 60 84 3 0 45 -11 94 -25 49 -14 96 -25
104 -25 26 0 44 28 85 134 48 123 87 276 101 401 13 118 9 123 -108 154 -50
13 -95 28 -100 35 -5 6 -12 56 -15 111 -4 55 -13 129 -21 165 -8 40 -10 69 -5
76 5 6 45 32 89 58 54 31 82 54 85 69 17 65 -181 442 -288 549 -35 35 -47 32
-139 -28 -37 -24 -75 -44 -83 -44 -14 0 -267 188 -278 208 -3 4 6 48 19 97 32
119 31 131 -8 155 -107 65 -354 137 -504 147 l-90 6 -12 -29z m159 -847 c197
-67 345 -205 432 -404 84 -190 76 -430 -22 -628 -91 -183 -233 -301 -441 -367
-111 -34 -283 -32 -395 5 -109 36 -195 89 -280 172 -83 81 -142 176 -181 290
-35 104 -44 290 -20 405 55 258 278 487 531 546 97 22 282 13 376 -19z"/>
</g>
</svg>
