<?xml version="1.0" standalone="no"?>
<!DOCTYPE svg PUBLIC "-//W3C//DTD SVG 20010904//EN"
 "http://www.w3.org/TR/2001/REC-SVG-20010904/DTD/svg10.dtd">
<svg version="1.0" xmlns="http://www.w3.org/2000/svg"
 width="1186.000000pt" height="363.000000pt" viewBox="0 0 1186.000000 363.000000"
 preserveAspectRatio="xMidYMid meet">

<g transform="translate(0.000000,363.000000) scale(0.100000,-0.100000)"
fill="#fcfcfc" stroke="none">
<path d="M4735 3582 c-129 -45 -206 -119 -304 -293 -36 -63 -142 -219 -235
-347 -94 -128 -205 -280 -246 -336 -97 -134 -117 -156 -333 -375 -375 -378
-546 -521 -982 -822 -626 -433 -870 -571 -1565 -891 -293 -135 -448 -203 -625
-275 -258 -104 -415 -185 -415 -213 0 -58 449 33 935 189 418 133 1046 425
1470 681 422 255 879 580 1020 725 28 29 66 60 85 70 68 34 129 86 197 168 38
45 76 93 85 107 18 29 245 277 387 425 103 106 274 352 421 605 107 183 127
201 251 215 192 23 619 -136 1094 -408 466 -266 918 -546 1515 -937 464 -304
780 -500 1135 -704 344 -197 482 -265 538 -266 24 0 26 2 17 20 -28 52 -129
135 -517 422 -29 21 -53 43 -53 49 0 6 15 16 33 22 57 21 322 154 545 274 358
193 533 271 649 292 84 16 103 6 148 -76 177 -319 533 -716 808 -901 205 -139
503 -243 837 -292 74 -11 154 -20 178 -20 l42 0 0 70 c0 39 -2 70 -3 70 -14 0
-309 63 -374 79 -382 98 -672 277 -938 581 -171 195 -254 308 -457 626 -56 87
-91 107 -188 106 -152 -2 -349 -77 -740 -283 -85 -45 -295 -150 -466 -234
l-310 -152 -35 29 c-109 94 -743 557 -1139 830 -52 36 -223 148 -380 249 -157
101 -364 234 -460 296 -457 293 -510 326 -675 410 -200 102 -420 185 -577 218
-99 21 -308 19 -373 -3z"/>
</g>
</svg>
